PathFileType	4	(X/Y/Z)	C:/Users/beibeiliu/ov580/test_trc/User3\out5_training_dense_right.trc
DataRate	CameraRate	NumFrames	NumMarkers	Units	OrigDataRate	OrigDataStartFrame	OrigNumFrames
120	120	10	19	mm	120	1	500
Frame#	Time	ThumbCMC			ThumbMCP			ThumbIP			ThumbTip			IndexMCP			IndexPIP			IndexTip			MiddleMCP			MiddlePIP			MiddleTip			RingMCP			RingPIP			RingTip			PinkyMCP			PinkyPIP			PinkyTip			BackHand1			BackHand2			BackHand3	
		X0	Y0	Z0	X1	Y1	Z1	X2	Y2	Z2	X3	Y3	Z3	X4	Y4	Z4	X5	Y5	Z5	X6	Y6	Z6	X7	Y7	Z7	X8	Y8	Z8	X9	Y9	Z9	X10	Y10	Z10	X11	Y11	Z11	X12	Y12	Z12	X13	Y13	Z13	X14	Y14	Z14	X15	Y15	Z15	X16	Y16	Z16	X17	Y17	Z17	X18	Y18	Z18	
0	0	102.047	19.8317	69.9843	79.923	12.6278	44.3765	70.6675	5.74179	15.7613	69.5769	-2.2183	-6.35515	113.891	38.4952	-6.12442	107.766	32.3844	-36.5396	100.541	24.3712	-57.2978	141.67	39.2213	-11.3756	136.506	35.0897	-40.6814	136.669	20.1456	-71.1897	157.705	32.275	-4.18296	159.727	29.7033	-32.1227	162.42	16.68	-58.8326	177.326	19.1244	10.6481	187.569	13.8499	-11.3658	194.286	2.37946	-30.5894	158.233	38.6387	46.8568	159.057	40.4603	78.131	126.598	44.1344	62.7714	
1	0.00833333	99.9123	19.8763	65.8849	83.9619	11.5251	46.3257	72.4894	5.59983	15.1692	65.7314	-3.44651	-3.97117	113.19	37.7822	-5.08754	104.564	34.1167	-35.1836	102.668	21.9524	-59.2935	137.118	38.7165	-9.76237	134.367	33.3239	-43.6752	134.122	19.4111	-72.3167	154.646	32.41	-5.84177	162.884	28.4826	-28.5249	159.491	16.6984	-57.8469	175.645	17.7761	11.4543	186.493	12.6411	-12.4844	187.645	0.639724	-34.0305	157.671	37.1181	47.5469	159.259	38.0208	78.2448	126.131	44.6906	60.6543	
2	0.0166667	98.6327	19.0209	71.9766	84.5111	11.5061	44.5033	70.9507	5.80916	16.5132	68.9079	-1.63608	-4.33183	113.242	38.2973	-4.51915	103.604	35.4818	-30.4127	102.748	24.1426	-55.4325	136.618	39.1177	-13.9589	133.151	33.8056	-42.2926	132.894	18.3623	-72.3298	156.944	31.6104	-3.81797	157.928	29.0723	-27.8446	158.823	16.2442	-55.6683	175.42	19.0032	10.6394	184.804	12.0695	-9.68243	187.058	2.3403	-30.5388	158.572	36.9689	47.3579	162.541	37.8141	76.4562	128.322	44.4544	63.3396	
3	0.025	97.4784	20.1763	70.3855	81.327	12.6438	48.0594	71.4867	8.14312	16.1132	66.9714	-0.13723	-5.1212	110.838	40.7708	-0.935261	103.025	36.1759	-32.7745	103.024	25.52	-55.3582	140.046	40.4376	-10.3429	136.034	34.6778	-41.8238	133.597	19.6542	-68.7768	154.708	34.4004	-4.13312	157.955	29.9163	-30.9999	155.431	17.0744	-55.1619	174.139	19.5009	12.4203	181.986	14.0822	-7.7233	185.259	1.16675	-33.8652	155.96	39.563	48.9978	160.839	35.1565	80.4315	124.592	44.8026	61.7086	
4	0.0333333	96.7178	22.5693	71.156	82.4696	14.8879	48.8388	70.7622	10.8658	19.1665	68.6271	2.8921	-4.40997	112.577	43.7166	-2.47582	103.157	41.0708	-27.7978	102.879	28.5353	-52.2508	135.494	43.3434	-4.81443	133.151	36.7625	-39.5551	129.235	23.626	-65.6816	153.703	33.7598	2.15332	153.93	31.2249	-29.9183	153.558	18.1259	-55.4322	174.406	18.5926	15.8165	180.665	14.413	-11.8655	181.45	0.751481	-33.159	156.937	38.48	53.9568	164.576	35.9916	82.2556	130.588	44.0985	67.6971	
5	0.0416667	97.8689	23.6672	72.9805	84.5656	16.9575	51.0519	72.6649	12.3793	25.8248	69.2271	6.24083	1.5483	109.819	46.2715	2.53054	106.921	42.6361	-26.908	95.8491	32.2793	-51.4923	137.816	44.6645	-2.40208	135.227	40.3208	-33.7623	127.133	26.5914	-61.2992	152.128	36.277	1.03456	156.067	32.8387	-24.9697	149.611	20.5769	-49.054	175.069	19.4771	13.7309	177.176	16.0506	-7.23919	179.702	1.13281	-33.7901	161.487	37.5133	53.2986	162.561	35.3266	81.6902	131.176	45.5861	66.8494	
6	0.05	100.313	23.6763	77.2154	80.6092	19.4633	55.8118	67.9225	16.1501	26.1867	65.1949	8.45911	4.09856	110.377	48.9866	6.20298	100.521	47.3273	-22.8748	99.2968	35.5749	-46.7151	134.02	48.2167	-0.0786865	130.807	43.3895	-30.4158	124.366	28.2613	-59.6559	154.631	37.412	3.36287	154.365	33.8753	-22.8105	149.256	21.3579	-47.1038	170.338	20.5176	17.6802	176.553	13.503	-8.29753	173.774	0.959431	-32.4588	158.376	39.8182	59.0904	160.888	35.2387	86.5591	129.271	46.3572	71.143	
7	0.0583333	99.3272	23.3586	84.6264	80.9706	20.4328	58.6502	68.7505	17.5513	30.5565	65.1919	12.002	5.60823	107.31	52.6084	9.85543	101.359	48.4766	-20.7899	93.952	38.5936	-45.1238	134.055	48.998	0.866518	128.131	44.8993	-28.8496	122.73	28.0123	-60.1695	153.019	38.1276	4.65448	152.099	34.7198	-22.0365	142.733	24.3647	-44.6145	168.878	21.5835	20.0598	171.222	17.0221	-3.99984	170.955	3.93818	-29.7305	157.613	42.5486	57.3554	162.357	35.4361	90.5105	127.656	47.8297	77.7038	
8	0.0666667	102.373	24.475	82.3645	81.2011	20.7075	61.9977	70.2927	18.4859	35.6695	63.8147	13.1417	11.3339	107.983	53.4296	11.8068	98.526	52.7383	-15.561	93.4551	43.5812	-37.4712	133.38	50.8533	4.73519	125.772	45.9302	-28.2008	117.136	33.6033	-51.669	148.813	40.3483	11.0002	146.644	37.7894	-16.989	139.287	24	-45.243	168.306	22.3146	18.7798	166.175	17.1781	-5.70579	167.175	3.46418	-26.0029	161.999	41.0421	60.0165	166.065	34.0263	88.352	131.786	45.9635	80.5085	
9	0.075	100.783	24.1202	90.0875	80.6918	20.7282	64.2509	67.9236	19.9243	38.8958	62.4636	16.0436	12.8409	108.793	54.3717	14.6378	95.5093	54.3597	-8.63513	88.6769	43.0309	-36.0598	128.011	53.4068	5.00934	121.91	47.5087	-25.4508	111.483	35.6162	-49.9532	147.903	40.3646	12.0113	142.768	38.6991	-15.3134	134.291	25.7736	-41.5216	168.289	21.3907	18.6168	164.584	17.1896	-5.11089	158.873	7.07437	-26.8893	156.548	38.8037	63.8955	166.029	32.3243	87.9838	134.626	46.3207	83.2938	
